<svg width="21" height="21" viewBox="0 0 21 21" fill="none" xmlns="http://www.w3.org/2000/svg">
<path d="M10.5 0.34375C4.9 0.34375 0.34375 4.9 0.34375 10.5C0.34375 16.1 4.9 20.6562 10.5 20.6562C16.1 20.6562 20.6562 16.1 20.6562 10.5C20.6562 4.9 16.1 0.34375 10.5 0.34375ZM10.5 1.90625C15.2547 1.90625 19.0938 5.74531 19.0938 10.5C19.0938 15.2547 15.2547 19.0938 10.5 19.0938C5.74531 19.0938 1.90625 15.2547 1.90625 10.5C1.90625 5.74531 5.74531 1.90625 10.5 1.90625ZM10.4266 5.8125C7.82969 5.8125 5.73906 7.90313 5.73906 10.5C5.73906 13.0969 7.82969 15.1875 10.4266 15.1875C12.3008 15.1875 13.9031 14.0641 14.65 12.4773L13.2344 11.8187C12.7305 12.8891 11.6781 13.625 10.4266 13.625C8.64766 13.625 7.30156 12.2789 7.30156 10.5C7.30156 8.72109 8.64766 7.375 10.4266 7.375C11.6781 7.375 12.7313 8.11016 13.2344 9.18203L14.6508 8.52266C13.9023 6.93594 12.3008 5.8125 10.4258 5.8125H10.4266Z" fill="#3F3F3F"/>
</svg>
