<svg width="41" height="37" viewBox="0 0 41 37" fill="none" xmlns="http://www.w3.org/2000/svg">
<path d="M20.4945 12.3307C16.7303 12.3307 13.6584 15.103 13.6584 18.5C13.6584 21.897 16.7303 24.6693 20.4945 24.6693C24.2587 24.6693 27.3306 21.897 27.3306 18.5C27.3306 15.103 24.2587 12.3307 20.4945 12.3307ZM40.9977 18.5C40.9977 15.9453 41.0234 13.4137 40.8644 10.8636C40.7054 7.90159 39.9566 5.27281 37.5566 3.10685C35.1514 0.936258 32.2436 0.26518 28.9614 0.121708C26.1306 -0.0217641 23.3253 0.00137661 20.4996 0.00137661C17.6688 0.00137661 14.8635 -0.0217641 12.0378 0.121708C8.75565 0.26518 5.84274 0.940886 3.44266 3.10685C1.03746 5.27744 0.293842 7.90159 0.134863 10.8636C-0.0241165 13.4183 0.0015254 15.9499 0.0015254 18.5C0.0015254 21.0501 -0.0241165 23.5863 0.134863 26.1364C0.293842 29.0984 1.04258 31.7272 3.44266 33.8932C5.84787 36.0637 8.75565 36.7348 12.0378 36.8783C14.8687 37.0218 17.6739 36.9986 20.4996 36.9986C23.3305 36.9986 26.1357 37.0218 28.9614 36.8783C32.2436 36.7348 35.1565 36.0591 37.5566 33.8932C39.9618 31.7226 40.7054 29.0984 40.8644 26.1364C41.0285 23.5863 40.9977 21.0547 40.9977 18.5ZM20.4945 27.9923C14.6738 27.9923 9.9762 23.7529 9.9762 18.5C9.9762 13.2471 14.6738 9.00771 20.4945 9.00771C26.3152 9.00771 31.0128 13.2471 31.0128 18.5C31.0128 23.7529 26.3152 27.9923 20.4945 27.9923ZM31.4436 10.8358C30.0845 10.8358 28.9871 9.8454 28.9871 8.61895C28.9871 7.3925 30.0845 6.40208 31.4436 6.40208C32.8026 6.40208 33.9 7.3925 33.9 8.61895C33.9005 8.91018 33.8372 9.19861 33.7139 9.46774C33.5906 9.73687 33.4096 9.9814 33.1815 10.1873C32.9533 10.3933 32.6823 10.5565 32.3841 10.6678C32.0859 10.7791 31.7663 10.8362 31.4436 10.8358Z" fill="#5B1483"/>
</svg>
